<?xml version="1.0" encoding="UTF-8"?>
<svg width="166px" height="40px" viewBox="0 0 166 40" version="1.1" xmlns="http://www.w3.org/2000/svg" xmlns:xlink="http://www.w3.org/1999/xlink">
    <title>LOGO/企业版@3x</title>
    <defs>
        <path d="M164.574467,12 C165.237209,12 165.774467,12.5372583 165.774467,13.2 C165.774467,13.2685936 165.768586,13.337061 165.756888,13.4046497 L163.489177,26.5069746 C163.339839,27.3698186 162.591219,28 161.715547,28 L131.425533,28 C130.762791,28 130.225533,27.4627417 130.225533,26.8 C130.225533,26.7314064 130.231414,26.662939 130.243112,26.5953503 L132.510823,13.4930254 C132.660161,12.6301814 133.408781,12 134.284453,12 L164.574467,12 Z M161.92396,16.3333333 C160.331701,16.5111225 158.835193,16.6222108 157.434289,16.6666667 L156.919581,19.6333162 C156.742179,20.655527 156.53713,21.4222108 156.304286,21.9333333 C156.091707,22.4666667 155.724833,22.9888603 155.203813,23.4999829 C155.35652,23.5888603 155.50967,23.744473 155.6633,23.9666495 C156.223816,23.3666495 156.624281,22.7888603 156.864803,22.2333162 C157.133157,21.655527 157.36183,20.8222108 157.550785,19.7333333 L157.649083,19.1666495 L158.22562,19.1666495 L157.992037,19.2666667 C158.011564,20.4 158.233999,21.3333333 158.659231,22.0666667 C158.229533,22.4666667 157.50003,22.9333333 156.470651,23.4666667 L156.531187,23.5333333 C156.66075,23.7555441 156.75388,23.9111225 156.810541,24 C157.691865,23.4888775 158.423323,23.0111397 159.00488,22.5666495 C159.360163,23.0111397 159.85959,23.455527 160.503086,23.8999829 C160.705884,23.6999829 160.835188,23.5777892 160.891,23.5333333 C160.974644,23.4666667 161.032264,23.4111397 161.064009,23.3666495 C160.412761,22.9666495 159.899419,22.5333333 159.524018,22.0666667 C160.220078,21.3777892 160.820128,20.4111397 161.324279,19.1666495 L161.428373,18.5666495 L157.753176,18.5666495 L157.978712,17.2666667 C159.311439,17.2 160.651844,17.0888775 162,16.9333333 Z M156.37955,16.0999829 L155.731034,16.0999829 L155.303033,18.5666495 L154.366193,18.5666495 L154.759496,16.2999829 L154.110906,16.2999829 L153.40536,20.3666495 C153.187392,21.8999829 152.796267,22.9777892 152.231874,23.6 C152.276021,23.6222108 152.340434,23.6666667 152.424927,23.7333333 C152.573832,23.8444559 152.680398,23.9221937 152.744774,23.9666495 C153.32072,23.2778063 153.724284,22.2666667 153.955615,20.9333333 L154.928482,20.9333333 L154.413811,23.8999829 L155.062327,23.8999829 L155.67537,20.3666495 L154.05395,20.3666495 L154.273728,19.0999829 L156.471573,19.0999829 L156.564113,18.5666495 L155.95166,18.5666495 L156.37955,16.0999829 Z M139.629382,18.5666495 L138.872712,18.5666495 L138.097771,23.0333162 L136.188175,23.0333162 L136.731712,19.8999829 L136.011105,19.8999829 L135.467495,23.0333162 L134.098298,23.0333162 L134,23.6 L142.215142,23.6 L142.313477,23.0333162 L138.854478,23.0333162 L139.218767,20.9333333 L141.813091,20.9333333 L141.917184,20.3333333 L139.322861,20.3333333 L139.629382,18.5666495 Z M147.864605,16.1666495 L147.143998,16.1666495 L145.975754,22.8999829 L143.201371,22.8999829 L143.097278,23.4999829 L151.744813,23.4999829 L151.84887,22.8999829 L149.03846,22.8999829 L150.206631,16.1666495 L149.486025,16.1666495 L148.317854,22.8999829 L146.696434,22.8999829 L147.864605,16.1666495 Z M160.603673,19.1666495 C160.21395,20.1666495 159.738886,20.9666495 159.178406,21.5666495 C158.8136,20.8999829 158.628151,20.0999829 158.621913,19.1666495 Z M151.772387,17.7333333 C151.151149,18.8222108 150.467861,19.9221937 149.72256,21.0333162 L150.360889,21.2999829 C151.050415,20.2333162 151.735622,19.1221937 152.416547,17.9666495 Z M145.070548,17.7333333 L144.387371,17.9333333 L144.572819,18.7333333 C144.832573,19.8666667 145.008461,20.7221937 145.100336,21.2999829 L145.861436,21.0666667 C145.824117,20.8666667 145.747856,20.544473 145.632836,20.0999829 C145.389398,19.0111397 145.201956,18.2222108 145.070548,17.7333333 Z M139.318062,16 C138.224898,17.1777892 136.642347,18.2 134.570336,19.0666667 C134.606805,19.1333333 134.673506,19.2333162 134.770512,19.3666495 C134.839576,19.5221937 134.892324,19.6333162 134.928793,19.6999829 C136.86061,18.8111397 138.359518,17.855527 139.425699,16.8333162 C140.065024,17.855527 141.192037,18.7666495 142.806776,19.5666495 C142.961661,19.3666495 143.142348,19.1555441 143.349058,18.9333333 C141.759235,18.2666667 140.612437,17.4 139.908773,16.3333333 L140.1294,16.0999829 Z" id="path-1"></path>
    </defs>
    <g id="LOGO/企业版" stroke="none" stroke-width="1" fill="none" fill-rule="evenodd">
        <path d="M4.80767799,12.8318225 C2.7045959,12.8318225 1.00004739,14.54016 1.00004739,16.64821 C1.00004739,18.75626 2.7045959,20.464835 4.80767799,20.464835 C6.91004925,20.464835 8.61436082,18.75626 8.61436082,16.64821 C8.61436082,14.54016 6.91004925,12.8318225 4.80767799,12.8318225 M14.6821175,22.22167 C12.2994459,22.22167 10.3674347,24.1580075 10.3674347,26.546545 C10.3674347,28.93532 12.2994459,30.8721325 14.6821175,30.8721325 C17.0652631,30.8721325 18.9975112,28.93532 18.9975112,26.546545 C18.9975112,24.1580075 17.0652631,22.22167 14.6821175,22.22167 M14.6587552,0.99997625 C11.504606,0.99997625 8.94778321,3.58516375 8.94778321,6.77336375 C8.94778321,9.96251375 11.504606,12.5472262 14.6587552,12.5472262 C17.8129045,12.5472262 20.3699642,9.96251375 20.3699642,6.77336375 C20.3699642,3.58516375 17.8129045,0.99997625 14.6587552,0.99997625 M24.5683567,33.9120375 C23.166381,33.9120375 22.0302522,35.05085 22.0302522,36.4559 C22.0302522,37.860475 23.166381,39 24.5683567,39 C25.9700955,39 27.1062243,37.860475 27.1062243,36.4559 C27.1062243,35.05085 25.9700955,33.9120375 24.5683567,33.9120375" id="Combined-Shape" fill="#FFFFFF"></path>
        <g id="Group" transform="translate(29, 11.5)" fill="#FFFFFF">
            <path d="M37.3525481,4.7562225 C37.2648802,5.2003475 36.8706116,5.525485 36.4159231,5.525485 L35.4167459,5.525485 L35.7408802,3.7553975 L37.5352291,3.7553975 L37.3525481,4.7562225 Z M40.0643299,0.1050225 L38.4358392,0.1050225 C38.3010201,0.1050225 38.1858672,0.2004975 38.1621731,0.3330225 L37.8311675,2.143485 L36.0365817,2.143485 L36.408341,0.1050225 L34.7829306,0.1050225 C34.6483485,0.1050225 34.5322478,0.20121 34.5085537,0.333735 L34.1825239,2.143485 L32.8203541,2.143485 L33.1151078,0.5263475 L31.4193261,0.5263475 C31.2854549,0.5263475 31.169828,0.6227725 31.1454231,0.7543475 L30.8902384,2.143485 L30.1666228,2.143485 C30.0318037,2.143485 29.9164138,2.2396725 29.8929567,2.3721975 L29.6399045,3.7553975 L30.5952478,3.7553975 L29.6064959,9.1642225 L39.2141881,9.1642225 C39.3482963,9.1642225 39.4636862,9.0677975 39.488328,8.9362225 L39.7300071,7.61881 L31.8162011,7.61881 L32.5237049,3.7553975 L33.8865854,3.7553975 L33.3283541,6.79041 L37.6954007,6.79041 C38.3543317,6.79041 38.9220407,6.321585 39.0466713,5.676535 L39.3990015,3.7553975 L40.8791675,3.7553975 C41.0130388,3.7553975 41.1291396,3.65921 41.1528336,3.526685 L41.4063597,2.143485 L39.694466,2.143485 L40.0643299,0.1050225 Z" id="Fill-1"></path>
            <path d="M24.4404629,8.600065 L23.4187763,8.600065 L24.1497371,4.5998525 L25.1726084,4.5998525 L24.4404629,8.600065 Z M26.5994629,4.5998525 L27.630864,4.5998525 L27.0418304,7.8255775 C26.9728808,8.2782525 26.5944871,8.600065 26.1414573,8.600065 L25.8692129,8.600065 L26.5994629,4.5998525 Z M35.1454256,9.5051775 L33.357711,9.5051775 C33.2236028,9.5051775 33.1082129,9.6016025 33.083808,9.7331775 L32.9414069,10.4984025 L28.7435356,10.4984025 C28.6096644,10.4984025 28.4949853,10.59459 28.4698696,10.727115 L28.2146849,12.1129275 L31.6316009,12.1129275 C30.6518528,12.99429 29.3830375,13.798465 27.8614069,14.50099 C27.8429256,14.3159775 27.7623659,13.62699 27.6846494,12.961515 C27.6552688,12.710715 27.6256513,12.45659 27.5988771,12.224315 L27.5995879,12.224315 C27.5517259,11.8070275 27.51192,11.464315 27.5000729,11.3410525 L27.2264069,11.3681275 L27.2247483,11.3681275 L26.5136905,11.43819 C26.4397651,11.4450775 26.3712894,11.4811775 26.3241382,11.540315 C26.2769871,11.5985025 26.2558994,11.67284 26.2641924,11.7471775 L26.4411868,13.29924 L25.3024517,13.4106275 L25.8490729,10.42739 L26.6577502,10.42739 C27.4202241,10.42739 28.0722838,9.8851775 28.2094722,9.1370525 L29.3714274,2.77419 L27.2508118,2.77419 L27.7377241,0.1049275 L25.8718192,0.1049275 C25.7379479,0.1049275 25.6223211,0.2004025 25.5981532,0.3329275 L25.1515207,2.77419 L23.4026644,2.77419 C23.2678453,2.77419 23.1522185,2.869665 23.1280506,3.00219 L21.7715674,10.42739 L23.7514405,10.42739 L23.1676196,13.61939 L20.8145655,13.8490525 C20.6908826,13.86164 20.59042,13.95379 20.5676737,14.0770525 L20.296614,15.56404 L26.6316868,14.9543775 L26.8456438,16.8187525 C26.956058,16.7698275 27.0645767,16.7166275 27.1749909,16.66509 C27.1809144,16.662715 27.1884965,16.6634275 27.1953677,16.6601025 C27.2718994,16.624715 27.3479573,16.585765 27.4235412,16.548715 C27.5306382,16.49789 27.6374983,16.44564 27.7436476,16.3931525 C27.9106905,16.3095525 28.0748901,16.22524 28.2398006,16.136415 C28.2753416,16.11884 28.3115935,16.1010275 28.3468976,16.0815525 L28.3468976,16.0801275 C29.9737297,15.202565 31.4631364,14.13429 32.4698957,13.0990275 L31.7891662,16.8187525 L33.5752222,16.8187525 C33.7088565,16.8187525 33.8242465,16.722565 33.8488882,16.59004 L34.4924181,13.0990275 C35.0857166,14.2238275 36.2211345,15.2702525 37.8681065,16.206715 C37.9119405,16.2311775 37.9593285,16.243765 38.0062427,16.243765 C38.0896457,16.243765 38.1723379,16.205765 38.2263603,16.13499 C38.3130804,16.023365 38.4047763,15.9195775 38.4948136,15.8131775 C38.5993043,15.688965 38.7073491,15.5690275 38.8158677,15.453365 C38.8715487,15.3942275 38.9279405,15.33604 38.9843323,15.279515 C39.1326569,15.13084 39.2835879,14.9857275 39.4385468,14.8522525 C39.2572875,14.7848025 39.0821886,14.71284 38.9118285,14.6385025 C38.9044834,14.6351775 38.8985599,14.6318525 38.8907409,14.62829 C38.7248826,14.5558525 38.5630524,14.4798525 38.4047763,14.40219 L38.4047763,14.405515 C37.1800319,13.8025025 36.2322707,13.0334775 35.5851868,12.1129275 L39.2305132,12.1129275 C39.3650953,12.1129275 39.4807222,12.01484 39.5048901,11.882315 L39.755336,10.4984025 L34.9634554,10.4984025 L35.1454256,9.5051775 Z" id="Fill-3"></path>
            <path d="M6.21340392,5.51361 C8.01699347,4.658135 9.78883302,3.5121975 11.4803498,2.1080975 C12.5863871,3.5511475 13.8677603,4.696135 15.2865588,5.51361 L6.21340392,5.51361 Z M19.6055065,5.09466 C19.4439132,5.04336 19.2830308,4.9884975 19.1254655,4.9310225 C17.0133797,4.15321 15.0690476,2.67881 13.2031427,0.433485 C13.1498312,0.3700725 13.0716409,0.333735 12.9891856,0.333735 L10.2648461,0.333735 C10.1966073,0.333735 10.1307379,0.3591475 10.0802696,0.404035 C7.39786847,2.7954225 4.64983489,4.41921 1.6783666,5.36921 C1.56653078,5.404835 1.48810354,5.5086225 1.48478638,5.62761 C1.46891138,6.262685 1.39711847,7.33856 1.3878778,7.50481 C1.67694496,7.39081 2.07121362,7.234535 2.49486287,7.0656725 C3.37177892,6.716785 4.30508675,6.3436725 4.78109981,6.1470225 L4.57306623,7.3392725 L9.10715578,7.3392725 L8.79960728,9.020535 L2.98248601,9.020535 C2.84695616,9.020535 2.73156623,9.119335 2.7078722,9.25281 L2.42899347,10.8495225 L8.46528451,10.8495225 L7.78360728,14.5735225 L7.08013153,14.5735225 C6.41053825,13.50691 6.03996362,12.96921 5.71962034,12.5357725 L5.7205681,12.5357725 C5.70516698,12.5148725 5.69189832,12.49706 5.67744496,12.4768725 C5.64901213,12.4388725 5.62105317,12.4008725 5.59262034,12.363585 C5.51253451,12.257185 5.43244869,12.151735 5.34904571,12.0436725 C5.00951026,11.6223475 4.73679198,11.270135 4.74674347,11.315735 L3.15095056,12.1467475 C3.07939459,12.1837975 3.02726772,12.2512475 3.00878638,12.32986 C2.9900681,12.410135 3.0071278,12.493735 3.05498974,12.5595225 C3.14526399,12.6811225 3.2587584,12.83811 3.39523601,13.025735 C3.57483675,13.2729725 3.78287034,13.5584475 4.01033302,13.8700475 C4.12643377,14.0272725 4.22760728,14.1697725 4.47212966,14.5735225 L0.592469216,14.5735225 C0.457887127,14.5735225 0.342497201,14.66971 0.31785541,14.8015225 L0.0524822761,16.2554975 L17.6083368,16.2554975 C17.742208,16.2554975 17.8583088,16.15931 17.8820028,16.025835 L18.1473759,14.5735225 L14.1719916,14.5735225 C14.6371054,14.3184475 15.13468,13.90401 15.6403106,13.359185 L15.6403106,13.36251 C15.6670849,13.33401 15.6900681,13.3066975 15.7161315,13.2781975 C15.7682584,13.22001 15.82157,13.161585 15.8736968,13.099835 C15.92843,13.0383225 15.9781875,12.979185 16.027945,12.920285 C16.0608797,12.880385 16.0935774,12.8407225 16.1265121,12.8003475 C16.2089674,12.698935 16.2821819,12.6060725 16.3478144,12.51986 L16.3639263,12.500385 L16.3648741,12.4987225 C16.4423535,12.3956475 16.5113032,12.303735 16.5603498,12.2369975 L15.0858703,11.4465975 C15.0439319,11.4247475 14.9984394,11.413585 14.9546054,11.413585 C14.8669375,11.413585 14.7809282,11.4551475 14.7271427,11.53091 C14.1921315,12.2825975 12.5190961,14.0144475 10.7633685,14.5735225 L10.2662677,14.5735225 L10.9472341,10.8495225 L16.7968162,10.8495225 C16.9316353,10.8495225 17.0472621,10.753335 17.0707192,10.62081 L17.3647621,9.020535 L11.2815569,9.020535 L11.5898162,7.3392725 L15.8087752,7.3392725 C15.9435942,7.3392725 16.0582733,7.243085 16.0824412,7.1112725 L16.2729412,6.0743475 C16.4255308,6.1223225 16.6328535,6.21281 16.9091259,6.3503225 C16.916708,6.354835 16.9250009,6.35816 16.9335308,6.3612475 C17.5948312,6.61466 18.0826912,6.7930225 18.4700886,6.9212725 C18.4987584,6.931485 18.5283759,6.9355225 18.5577565,6.9355225 C18.6444767,6.9355225 18.7285905,6.8951475 18.7826129,6.8215225 C18.9299897,6.619885 19.8289412,5.6401975 20.1483368,5.251885 C19.9763181,5.2079475 19.8071427,5.1580725 19.639389,5.106535 C19.6284897,5.1024975 19.6173535,5.098935 19.6055065,5.09466 L19.6055065,5.09466 Z" id="Fill-5"></path>
            <path d="M43,7.94366615 L48.8012463,7.94366615 L43.3438004,13.7417536 C43.1525896,13.9374536 43.0497575,14.1941911 43.0540224,14.4694536 C43.0642108,15.0337536 43.531931,15.4930786 44.0960858,15.4930786 L56.6359142,15.4930786 C57.1993582,15.4930786 57.6509664,15.0337536 57.640778,14.4694536 C57.6376978,14.2701911 57.5760933,14.0778161 57.4640205,13.9096661 L57.3839347,13.7906786 L57.3872519,13.7871161 L55.3185261,10.6122161 L53.0393974,10.6122161 L55.148166,13.8438786 L45.7354757,13.8438786 L51.2914888,7.94366615 L59.3585951,7.94366615 C59.4934142,7.94366615 59.6088041,7.84842865 59.6334459,7.71590365 L59.8926586,6.29470365 L43.5343004,6.29470365 C43.3994813,6.29470365 43.2850392,6.39089115 43.2603974,6.52341615 L43,7.94366615 Z" id="Fill-7"></path>
            <path d="M57.5140049,3.27533289 L58.4456542,3.27533289 C58.5897139,3.27533289 58.7126859,3.17225789 58.7387493,3.03047039 L59.0169172,1.50952039 L45.5710261,1.50952039 C45.4272034,1.50952039 45.3039944,1.61259539 45.277931,1.75462039 L45,3.27533289 L45.809625,3.27533289 L57.5140049,3.27533289 Z" id="Fill-9"></path>
            <path d="M78.1352099,4.78650375 L77.9688778,5.72700375 C77.8752864,6.25591625 77.4187024,6.63971625 76.8829804,6.63971625 L67.4506241,6.63971625 L67.7783125,4.78650375 L78.1352099,4.78650375 Z M68.1943797,2.43525375 C68.2254188,2.25879125 68.3775345,2.13077875 68.5561875,2.13077875 L78.6045886,2.13077875 L78.289458,3.91392875 L67.9325606,3.91392875 L68.1943797,2.43525375 Z M67.2729188,1.56220375 L66.2209039,7.51205375 L76.912361,7.51205375 C77.924333,7.51205375 78.7872696,6.78696625 78.9637901,5.78827875 L79.7648853,1.25844125 L67.6352006,1.25844125 C67.4565476,1.25844125 67.304195,1.38621625 67.2729188,1.56220375 L67.2729188,1.56220375 Z" id="Fill-20"></path>
            <path d="M73.0467748,8.10708625 L72.0738979,8.10708625 C72.0144259,8.10708625 71.9637207,8.14983625 71.9532953,8.20826125 L71.7113793,9.57483625 L67.1014688,9.57483625 L67.2611666,9.37533625 C67.5239334,9.04616125 67.7758009,8.69371125 68.0103718,8.32582375 L67.2234931,8.02871125 C67.2097506,8.02372375 67.1957711,8.02111125 67.1815547,8.02111125 C67.140564,8.02111125 67.1024166,8.04201125 67.0796703,8.07716125 C66.0300248,9.69524875 64.7695024,11.1447112 63.3315118,12.3870737 C63.4260509,12.4808862 63.5907244,12.6609112 63.8885584,13.0185862 C63.9122524,13.0468487 63.9477935,13.0632362 63.9857039,13.0632362 C64.0165062,13.0632362 64.0456498,13.0523112 64.0676853,13.0321237 C64.9633196,12.2167862 65.7319539,11.3871987 66.3517897,10.5659237 L66.3885155,10.5172362 L71.5448103,10.5172362 L71.2048009,12.4402737 L65.8703271,12.4402737 C65.810855,12.4402737 65.7601498,12.4830237 65.7497244,12.5414487 L65.6134838,13.3126112 L71.0505528,13.3126112 L70.7105435,15.2358862 L63.2151741,15.2358862 C63.1557021,15.2358862 63.1049968,15.2783987 63.0945715,15.3370612 L62.9583308,16.1082237 L78.709411,16.1082237 C78.768883,16.1082237 78.8195882,16.0657112 78.8300136,16.0068112 L78.9662543,15.2358862 L71.7864894,15.2358862 L72.1260248,13.3126112 L77.9488326,13.3126112 C78.0083047,13.3126112 78.0590099,13.2698612 78.0694353,13.2111987 L78.2056759,12.4402737 L72.2807468,12.4402737 L72.6205192,10.5172362 L78.9311871,10.5172362 C78.9906591,10.5172362 79.0413644,10.4744862 79.0517897,10.4158237 L79.2005882,9.57483625 L72.7873252,9.57483625 L73.0467748,8.10708625 Z" id="Fill-22"></path>
            <path d="M82.4866659,9.693515 C84.72433,8.5076775 86.9709979,7.1458525 89.2280912,5.60804 L88.5717666,4.80814 C88.4895483,4.707915 88.3435931,4.69034 88.2388655,4.7670525 C86.1014271,6.337165 83.8801118,7.6422275 81.5739718,8.68319 C81.7592591,8.95679 81.9549718,9.2624525 82.1613468,9.60089 C82.2291118,9.71204 82.3717498,9.754315 82.4866659,9.693515" id="Fill-24"></path>
            <path d="M90.1425623,10.3773725 L95.3374784,10.3773725 C95.3971873,10.3773725 95.4478925,10.3346225 95.4583179,10.27596 L95.6315213,9.2953225 L83.9932507,9.2953225 C83.9335418,9.2953225 83.8828366,9.3380725 83.8724112,9.396735 L83.6992078,10.3773725 L88.996719,10.3773725 L88.1750101,15.0261975 L81.2371612,15.0261975 C81.1776892,15.0261975 81.126984,15.06871 81.1165586,15.1273725 L80.9803179,15.898535 L96.1039802,15.898535 C96.1634522,15.898535 96.2143944,15.855785 96.2248198,15.796885 L96.3610604,15.0261975 L89.3203795,15.0261975 L90.1425623,10.3773725 Z" id="Fill-26"></path>
            <path d="M92.7023942,4.89573 C92.6682748,4.89573 92.6355771,4.90998 92.61212,4.93468 L92.0264035,5.55503 C93.814592,6.833255 95.4918924,8.1444925 97.0137599,9.4540675 C97.0419558,9.4782925 97.0720472,9.4835175 97.0921871,9.4835175 C97.1248849,9.4835175 97.1556871,9.4702175 97.1789073,9.4464675 L97.9136591,8.693355 C96.3045976,7.37998 94.5749334,6.1095925 92.7703961,4.916155 C92.7502562,4.9026175 92.7267991,4.89573 92.7023942,4.89573" id="Fill-28"></path>
            <path d="M92.0008377,2.65608125 C91.920041,2.22525625 91.7146138,1.27596875 91.5800317,0.75465625 C91.5357239,0.61928125 91.5013675,0.49388125 91.4769627,0.37988125 L90.5211455,0.63329375 C90.4559869,0.65063125 90.4173657,0.71523125 90.4332407,0.78006875 C90.5206716,1.14154375 90.7282313,2.05045625 90.8523881,2.65608125 L83.4942071,2.65608125 C83.4347351,2.65608125 83.3837929,2.69883125 83.3733675,2.75725625 L82.8167948,5.90484375 L83.7901455,5.90484375 C83.8496175,5.90484375 83.9003228,5.86209375 83.9105112,5.80319375 L84.2879571,3.66830625 L97.2239496,3.66830625 L96.8284963,5.90484375 L97.8013731,5.90484375 C97.8610821,5.90484375 97.9117873,5.86209375 97.9222127,5.80319375 L98.4787854,2.65608125 L92.0008377,2.65608125 Z" id="Fill-30"></path>
        </g>
        <mask id="mask-2" fill="white">
            <use xlink:href="#path-1"></use>
        </mask>
        <use id="形状结合" fill="#FFFFFF" xlink:href="#path-1"></use>
    </g>
</svg>