<?xml version="1.0" encoding="UTF-8"?>
<svg width="32px" height="32px" viewBox="0 0 32 32" version="1.1" xmlns="http://www.w3.org/2000/svg" xmlns:xlink="http://www.w3.org/1999/xlink">
    <title>0.全局样式/1.图标/4.基础面性图标/警告</title>
    <g id="0.全局样式/1.图标/4.基础面性图标/警告" stroke="none" stroke-width="1" fill="none" fill-rule="evenodd">
        <path d="M16,2 C23.7319865,2 30,8.2680135 30,16 C30,23.7319865 23.7319865,30 16,30 C8.2680135,30 2,23.7319865 2,16 C2,8.2680135 8.2680135,2 16,2 Z M16,22 C15.1715729,22 14.5,22.6715729 14.5,23.5 C14.5,24.3284271 15.1715729,25 16,25 C16.8284271,25 17.5,24.3284271 17.5,23.5 C17.5,22.6715729 16.8284271,22 16,22 Z M16,7 C15.4477153,7 15,7.44771525 15,8 L15,19 C15,19.5522847 15.4477153,20 16,20 C16.5522847,20 17,19.5522847 17,19 L17,8 C17,7.44771525 16.5522847,7 16,7 Z" id="形状结合" fill="#ee8f1a"></path>
    </g>
</svg>